<svg width="30" height="30" viewBox="0 0 30 30" fill="none" xmlns="http://www.w3.org/2000/svg">
<path d="M12.9268 7.40644L8.47168 2.2639C7.95808 1.67129 7.01649 1.67393 6.41993 2.2718L2.75628 5.94204C1.66588 7.03376 1.35377 8.65488 1.98457 9.95467C5.75307 17.7573 12.0458 24.0589 19.8432 27.8383C21.1417 28.4691 22.7615 28.157 23.8519 27.0653L27.5498 23.3608C28.149 22.7616 28.1503 21.8148 27.5524 21.3012L22.3901 16.8698C21.8502 16.4062 21.0113 16.4668 20.4701 17.0094L18.6738 18.8083C18.5818 18.9046 18.4608 18.9682 18.3292 18.9891C18.1977 19.01 18.0629 18.9872 17.9455 18.9242C15.0094 17.2334 12.5738 14.7946 10.8869 11.8563C10.8237 11.7388 10.8008 11.6037 10.8218 11.472C10.8427 11.3402 10.9063 11.2189 11.0028 11.1267L12.7938 9.3344C13.3364 8.7892 13.3956 7.94638 12.9268 7.40513V7.40644Z" stroke="white" stroke-width="2.63382" stroke-linecap="round" stroke-linejoin="round"/>
</svg>
